# xmcd
#
# Track frame offsets:
#	150
#	26951
#	50898
#	69933
#	84404
#	103531
#	122216
#	127886
#	147585
#	185397
#	189660
#	211251
#
# Disc length: 3092 seconds
#
# Revision: 0
# Processed by: cddbd v1.5.2PL0 Copyright (c) Steve Scherf et al.
# Submitted via: EasyCDDAExtractor 16.0.6.1
#
DISCID=b10c120c
DTITLE=Colin James -  2017-08-22 - CNE Bandshell, Toronto - BurnBoy - Disc 2
DYEAR=2017
DGENRE=Blues
TTITLE0=Why'd You Lie (Morgan Davis cover
TTITLE1=Freedom
TTITLE2=I'll See It Through
TTITLE3=One More Mile
TTITLE4=Don't Miss Your Water (William Bell cover
TTITLE5=Voodoo Thing
TTITLE6=Corrine, Corrina (Bo Carter cover) (Partial
TTITLE7=Just Came Back
TTITLE8=Keep on Lovin' Me Baby (Otis Rush cover) (with Wang Dang Doodle snippe
TTITLE8=t
TTITLE9=Encore
TTITLE10=Into the Mystic (Van Morrison cover
TTITLE11=Let's Shout (Baby Work Out
EXTD=
EXTT0=
EXTT1=
EXTT2=
EXTT3=
EXTT4=
EXTT5=
EXTT6=
EXTT7=
EXTT8=
EXTT9=
EXTT10=
EXTT11=
PLAYORDER=
